# xmcd
#
# Track frame offsets:
#	150
#	14810
#	32791
#	50717
#	62414
#	81366
#	89677
#	101258
#	116113
#	131961
#	148292
#	166664
#	180929
#	193216
#	207880
#	220342
#	236960
#	249022
#	261518
#	272476
#	295287
#
# Disc length: 4440
#
# Revision: 1
# Processed by: cddbd v1.5.1PL0 Copyright (c) Steve Scherf et al.
# Submitted via: audiograbber 1.83.01
# Normalized: r0:DSETVAR1
#
DISCID=47115615
DTITLE=Various Artist - Country Love Songs CD3
DYEAR=1900
DGENRE=Country
TTITLE0=Bobbie Gentry and Glen Campbell - Little green apples
TTITLE1=Dottie West - Hey Mr Dream Maker
TTITLE2=Eddie Rabbitt and Crystal Gayle - You and I
TTITLE3=Billie Jo Spears - Love letters in the sand
TTITLE4=Kenny Rogers - She believes in me
TTITLE5=Nitty Gritty Dirt Band - Hey good lookin'
TTITLE6=Wanda Jackson - Cold cold heart
TTITLE7=Tanya Tucker - Delta dawn
TTITLE8=Suzy Bogguss - My side of the story
TTITLE9=Larry Gatlin and The Gatlin Brothers - Country Girl Heart
TTITLE10=Billy Crash Craddock - I just had you on my mind
TTITLE11=Dr Hook - If not you
TTITLE12=Del Reeves and Billie Jo Spears - Let your love flow
TTITLE13=Gail Davies - I'm a little bit lonely
TTITLE14=Jean Shepard - My wedding ring
TTITLE15=Slim Whitman - Let me call you sweetheart
TTITLE16=Willie Nelson and Shirley Collie - Our chain of love
TTITLE17=Lee Greenwood and Suzy Bogguss - Hopelessly yours
TTITLE18=Crystal Gayle - Somebody loves you
TTITLE19=Glen Campbell - Everything a man could ever need
TTITLE20=Daten - Daten-CD
EXTD=
EXTT0=
EXTT1=
EXTT2=
EXTT3=
EXTT4=
EXTT5=
EXTT6=
EXTT7=
EXTT8=
EXTT9=
EXTT10=
EXTT11=
EXTT12=
EXTT13=
EXTT14=
EXTT15=
EXTT16=
EXTT17=
EXTT18=
EXTT19=
EXTT20=
PLAYORDER=
